<?xml version="1.0" encoding="UTF-8" standalone="no"?>
<!DOCTYPE svg PUBLIC "-//W3C//DTD SVG 1.1//EN" "http://www.w3.org/Graphics/SVG/1.1/DTD/svg11.dtd">
<svg width="100%" height="100%" viewBox="0 0 800 800" version="1.1" xmlns="http://www.w3.org/2000/svg" xmlns:xlink="http://www.w3.org/1999/xlink" xml:space="preserve" xmlns:serif="http://www.serif.com/" style="fill-rule:evenodd;clip-rule:evenodd;stroke-linejoin:round;stroke-miterlimit:2;">
    <path d="M670,307.38C609.667,307.38 585,264.713 615,212.38C632.333,182.047 622,143.38 591.667,126.047L534,93.047C507.667,77.38 473.667,86.713 458,113.047L454.333,119.38C424.333,171.713 375,171.713 344.667,119.38L341,113.047C326,86.713 292,77.38 265.667,93.047L208,126.047C177.667,143.38 167.333,182.38 184.667,212.713C215,264.713 190.333,307.38 130,307.38C95.333,307.38 66.667,335.713 66.667,370.713L66.667,429.38C66.667,464.047 95,492.713 130,492.713C190.333,492.713 215,535.38 184.667,587.713C167.333,618.047 177.667,656.713 208,674.047L265.667,707.047C292,722.713 326,713.38 341.667,687.047L345.333,680.713C375.333,628.38 424.667,628.38 455,680.713L458.667,687.047C474.333,713.38 508.333,722.713 534.667,707.047L592.333,674.047C622.667,656.713 633,617.713 615.667,587.713C585.333,535.38 610,492.713 670.333,492.713C705,492.713 733.667,464.38 733.667,429.38L733.667,370.713C733.333,336.047 705,307.38 670,307.38ZM400,508.38C340.333,508.38 291.667,459.713 291.667,400.047C291.667,340.38 340.333,291.713 400,291.713C459.667,291.713 508.333,340.38 508.333,400.047C508.333,459.713 459.667,508.38 400,508.38Z" style="fill:white;fill-rule:nonzero;"/>
</svg>
